HIERARCHY
ROOT hip
{
  OFFSET 0 0 0
  CHANNELS 6 Xposition Yposition Zposition Zrotation Yrotation Xrotation
  JOINT abdomen
  {
    OFFSET 0 20.6881 -0.73152
    CHANNELS 3 Zrotation Xrotation Yrotation
    JOINT chest
    {
      OFFSET 0 11.7043 -0.48768
      CHANNELS 3 Zrotation Xrotation Yrotation
      JOINT neck
      {
        OFFSET 0 22.1894 -2.19456
        CHANNELS 3 Zrotation Xrotation Yrotation
        JOINT head
        {
          OFFSET -0.24384 7.07133 1.2192
          CHANNELS 3 Zrotation Xrotation Yrotation
          JOINT leftEye
          {
            OFFSET 4.14528 8.04674 8.04672
            CHANNELS 3 Zrotation Xrotation Yrotation
            End Site
            {
              OFFSET 1 0 0
            }
          }
          JOINT rightEye
          {
            OFFSET -3.6576 8.04674 8.04672
            CHANNELS 3 Zrotation Xrotation Yrotation
            End Site
            {
              OFFSET 1 0 0
            }
          }
        }
      }
      JOINT rCollar
      {
        OFFSET -2.68224 19.2634 -4.8768
        CHANNELS 3 Zrotation Xrotation Yrotation
        JOINT rShldr
        {
          OFFSET -8.77824 -1.95073 1.46304
          CHANNELS 3 Zrotation Xrotation Yrotation
          JOINT rForeArm
          {
            OFFSET -28.1742 -1.7115 0.48768
            CHANNELS 3 Zrotation Xrotation Yrotation
            JOINT rHand
            {
              OFFSET -22.5879 0.773209 7.07136
              CHANNELS 3 Zrotation Xrotation Yrotation
              JOINT rThumb1
              {
                OFFSET -1.2192 -0.487915 3.41376
                CHANNELS 3 Zrotation Xrotation Yrotation
                JOINT rThumb2
                {
                  OFFSET -3.37035 -0.52449 3.41376
                  CHANNELS 3 Zrotation Xrotation Yrotation
                  End Site
                  {
                    OFFSET -1.78271 -1.18214 1.43049
                  }
                }
              }
              JOINT rIndex1
              {
                OFFSET -7.75947 0.938293 5.60832
                CHANNELS 3 Zrotation Xrotation Yrotation
                JOINT rIndex2
                {
                  OFFSET -2.54057 -0.884171 1.56538
                  CHANNELS 3 Zrotation Xrotation Yrotation
                  End Site
                  {
                    OFFSET -1.62519 -0.234802 1.16502
                  }
                }
              }
              JOINT rMid1
              {
                OFFSET -8.24714 1.18213 3.41376
                CHANNELS 3 Zrotation Xrotation Yrotation
                JOINT rMid2
                {
                  OFFSET -3.10165 -0.590103 1.0647
                  CHANNELS 3 Zrotation Xrotation Yrotation
                  End Site
                  {
                    OFFSET -2.48547 -0.328903 0.83742
                  }
                }
              }
              JOINT rRing1
              {
                OFFSET -8.82822 0.546677 1.51678
                CHANNELS 3 Zrotation Xrotation Yrotation
                JOINT rRing2
                {
                  OFFSET -2.60934 -0.819778 -0.0198488
                  CHANNELS 3 Zrotation Xrotation Yrotation
                  End Site
                  {
                    OFFSET -2.33842 -0.294052 0.168128
                  }
                }
              }
              JOINT rPinky1
              {
                OFFSET -8.27202 -0.0477905 -0.4584
                CHANNELS 3 Zrotation Xrotation Yrotation
                JOINT rPinky2
                {
                  OFFSET -1.82734 -0.647385 -0.700984
                  CHANNELS 3 Zrotation Xrotation Yrotation
                  End Site
                  {
                    OFFSET -1.69225 -0.51767 -0.607171
                  }
                }
              }
            }
          }
        }
      }
      JOINT lCollar
      {
        OFFSET 2.68224 19.2634 -4.8768
        CHANNELS 3 Zrotation Xrotation Yrotation
        JOINT lShldr
        {
          OFFSET 8.77824 -1.95073 1.46304
          CHANNELS 3 Zrotation Xrotation Yrotation
          JOINT lForeArm
          {
            OFFSET 28.1742 -1.7115 0.48768
            CHANNELS 3 Zrotation Xrotation Yrotation
            JOINT lHand
            {
              OFFSET 22.5879 0.773209 7.07136
              CHANNELS 3 Zrotation Xrotation Yrotation
              JOINT lThumb1
              {
                OFFSET 1.2192 -0.487915 3.41376
                CHANNELS 3 Zrotation Xrotation Yrotation
                JOINT lThumb2
                {
                  OFFSET 3.37035 -0.52449 3.41376
                  CHANNELS 3 Zrotation Xrotation Yrotation
                  End Site
                  {
                    OFFSET 1.78271 -1.18214 1.43049
                  }
                }
              }
              JOINT lIndex1
              {
                OFFSET 7.75947 0.938293 5.60832
                CHANNELS 3 Zrotation Xrotation Yrotation
                JOINT lIndex2
                {
                  OFFSET 2.54057 -0.884171 1.56538
                  CHANNELS 3 Zrotation Xrotation Yrotation
                  End Site
                  {
                    OFFSET 1.62519 -0.234802 1.16502
                  }
                }
              }
              JOINT lMid1
              {
                OFFSET 8.24714 1.18213 3.41376
                CHANNELS 3 Zrotation Xrotation Yrotation
                JOINT lMid2
                {
                  OFFSET 3.10165 -0.590103 1.0647
                  CHANNELS 3 Zrotation Xrotation Yrotation
                  End Site
                  {
                    OFFSET 2.48547 -0.328903 0.83742
                  }
                }
              }
              JOINT lRing1
              {
                OFFSET 8.82822 0.546677 1.51678
                CHANNELS 3 Zrotation Xrotation Yrotation
                JOINT lRing2
                {
                  OFFSET 2.60934 -0.819778 -0.0198488
                  CHANNELS 3 Zrotation Xrotation Yrotation
                  End Site
                  {
                    OFFSET 2.33842 -0.294052 0.168128
                  }
                }
              }
              JOINT lPinky1
              {
                OFFSET 8.27202 -0.0477905 -0.4584
                CHANNELS 3 Zrotation Xrotation Yrotation
                JOINT lPinky2
                {
                  OFFSET 1.82734 -0.647385 -0.700984
                  CHANNELS 3 Zrotation Xrotation Yrotation
                  End Site
                  {
                    OFFSET 1.69225 -0.51767 -0.607171
                  }
                }
              }
            }
          }
        }
      }
    }
  }
  JOINT rButtock
  {
    OFFSET -8.77824 4.35084 1.2192
    CHANNELS 3 Zrotation Xrotation Yrotation
    JOINT rThigh
    {
      OFFSET 0 -1.70687 -2.19456
      CHANNELS 3 Zrotation Xrotation Yrotation
      JOINT rShin
      {
        OFFSET 0 -36.8199 0.73152
        CHANNELS 3 Zrotation Xrotation Yrotation
        JOINT rFoot
        {
          OFFSET 0.73152 -45.1104 -5.12064
          CHANNELS 3 Zrotation Xrotation Yrotation
          End Site
          {
            OFFSET -1.1221 -3.69964 12.103
          }
        }
      }
    }
  }
  JOINT lButtock
  {
    OFFSET 8.77824 4.35084 1.2192
    CHANNELS 3 Zrotation Xrotation Yrotation
    JOINT lThigh
    {
      OFFSET 0 -1.70687 -2.19456
      CHANNELS 3 Zrotation Xrotation Yrotation
      JOINT lShin
      {
        OFFSET 0 -36.8199 0.73152
        CHANNELS 3 Zrotation Xrotation Yrotation
        JOINT lFoot
        {
          OFFSET -0.73152 -45.1104 -5.12064
          CHANNELS 3 Zrotation Xrotation Yrotation
          End Site
          {
            OFFSET 1.1221 -3.69964 12.103
          }
        }
      }
    }
  }
}
MOTION
Frames:	4
Frame Time:	0.00833333
52.4964 76.2505 -6.40083 -4.1174 -35.7745 14.0195 12.39 42.0008 -6.74211 -5.18198 4.89946 -0.705567 2.02179 19.7046 -0.943723 -0.217662 -45.149 -1.97992 -0.0 0.0 0.0 -0.0 0.0 0.0 4.88461e-13 -1.64213e-13 -4.03551e-13 60.8979 42.5463 12.9966 -25.7069 -22.7048 55.5832 -0.0235686 4.37828 0.61654 -4.29911e-09 3.0291e-09 2.65685e-09 -7.4196e-09 5.23529e-09 4.6085e-09 -4.29911e-09 3.02911e-09 2.65684e-09 7.73091 5.47488 0.417314 -4.29911e-09 3.02911e-09 2.65685e-09 2.90554 0.965183 0.102902 -4.2991e-09 3.02911e-09 2.65685e-09 10.2786 0.731801 0.0259123 -4.29911e-09 3.02911e-09 2.65686e-09 2.22167 -0.733487 -0.20892 4.88276e-13 -1.64179e-13 -4.03842e-13 -25.3955 25.559 -59.592 27.9022 -30.0582 -67.3425 6.01271 -54.9165 11.5423 2.47816e-09 1.73474e-09 1.33324e-09 4.21342e-09 2.97403e-09 2.40061e-09 2.47815e-09 1.73474e-09 1.33326e-09 -7.73091 5.47488 -0.417314 2.47816e-09 1.73474e-09 1.33325e-09 -2.90554 0.965183 -0.102902 2.47815e-09 1.73474e-09 1.33324e-09 -10.2786 0.731801 -0.0259123 2.47817e-09 1.73474e-09 1.33324e-09 -2.22167 -0.733487 0.20892 -2.03217e-16 0.0 -3.88251e-19 7.38759 -55.0783 -7.89377 -0.960626 57.7142 1.24418 -5.17377 -16.0933 -11.6075 2.03217e-16 0.0 3.88251e-19 35.9402 -62.5585 34.6824 176.364 65.578 -176.82 -0.728198 -4.51819 -4.01818
52.3425 75.8842 -6.30166 -4.2627 -35.9321 13.8049 12.3777 42.9197 -6.47326 -5.19184 4.80275 -0.632719 2.03626 19.8157 -1.02896 -0.0851408 -45.7052 -2.10792 -0.0 0.0 0.0 -0.0 0.0 0.0 3.20115e-13 9.38377e-14 -1.51785e-13 60.3285 42.2054 13.5102 -25.7165 -22.728 55.6211 -0.0232966 4.35306 0.612974 -2.02354e-09 8.71637e-10 1.33798e-10 -3.4956e-09 1.5098e-09 2.38926e-10 -2.02354e-09 8.71637e-10 1.33789e-10 7.73091 5.47488 0.417314 -2.02354e-09 8.71639e-10 1.33804e-10 2.90554 0.965183 0.102902 -2.02353e-09 8.71639e-10 1.33803e-10 10.2786 0.731801 0.0259123 -2.02355e-09 8.71645e-10 1.33808e-10 2.22167 -0.733487 -0.20892 3.19936e-13 9.38146e-14 -1.52123e-13 -25.0969 24.628 -59.9397 27.9453 -30.2948 -67.7184 6.02503 -54.9511 11.5574 1.77199e-09 1.65818e-09 1.45869e-09 2.98952e-09 2.85349e-09 2.58539e-09 1.77198e-09 1.65818e-09 1.4587e-09 -7.73091 5.47488 -0.417314 1.77199e-09 1.65818e-09 1.45869e-09 -2.90554 0.965183 -0.102902 1.77198e-09 1.65818e-09 1.45869e-09 -10.2786 0.731801 -0.0259123 1.772e-09 1.65818e-09 1.45868e-09 -2.22167 -0.733487 0.20892 -2.03217e-16 0.0 -3.88251e-19 7.50618 -55.1779 -8.07286 -1.0055 58.6233 1.32443 -5.33507 -16.6368 -11.7027 2.03217e-16 0.0 3.88251e-19 40.4689 -64.5327 38.948 176.489 64.1429 -176.919 -0.870152 -4.21866 -4.34977
52.1842 75.523 -6.19009 -4.4169 -36.1007 13.5936 12.3367 43.8338 -6.20502 -5.20672 4.69823 -0.563277 2.05132 19.9239 -1.10739 0.0369695 -46.2444 -2.2259 -0.0 0.0 0.0 -0.0 0.0 0.0 1.3328e-13 3.29624e-13 1.01218e-13 59.8266 41.8358 13.985 -25.7284 -22.7569 55.6681 -0.0230612 4.33109 0.609868 2.66884e-10 -1.22835e-09 -2.22257e-09 4.54399e-10 -2.11707e-09 -3.84263e-09 2.66891e-10 -1.22835e-09 -2.22258e-09 7.73091 5.47488 0.417314 2.66889e-10 -1.22835e-09 -2.22257e-09 2.90554 0.965183 0.102902 2.66897e-10 -1.22835e-09 -2.22257e-09 10.2786 0.731801 0.0259123 2.66874e-10 -1.22834e-09 -2.22256e-09 2.22167 -0.733487 -0.20892 1.33114e-13 3.29546e-13 1.0084e-13 -24.8316 23.6908 -60.2555 27.9845 -30.5191 -68.0757 6.03289 -54.9732 11.567 9.71506e-10 1.44354e-09 1.43603e-09 1.60947e-09 2.49601e-09 2.51145e-09 9.71493e-10 1.44354e-09 1.43605e-09 -7.73091 5.47488 -0.417314 9.71507e-10 1.44354e-09 1.43603e-09 -2.90554 0.965183 -0.102902 9.71497e-10 1.44354e-09 1.43604e-09 -10.2786 0.731801 -0.0259123 9.7151e-10 1.44354e-09 1.43603e-09 -2.22167 -0.733487 0.20892 -2.03217e-16 0.0 -3.88251e-19 7.62575 -55.2617 -8.2309 -1.05274 59.5221 1.40887 -5.50208 -17.179 -11.8086 2.03217e-16 0.0 3.88251e-19 45.3903 -66.3353 43.6371 176.581 62.9494 -176.989 -0.982616 -3.95401 -4.60318
52.0198 75.1676 -6.06573 -4.5902 -36.2743 13.3909 12.2947 44.7514 -5.96664 -5.21777 4.57669 -0.502406 2.05335 20.0333 -1.17437 0.131871 -46.7658 -2.33228 -0.0 0.0 0.0 -0.0 0.0 0.0 3.82704e-14 4.16707e-13 2.13296e-13 59.3895 41.4605 14.4151 -25.7443 -22.7955 55.7304 -0.0228799 4.31402 0.607456 1.48631e-09 -2.31073e-09 -3.2886e-09 2.55802e-09 -3.9875e-09 -5.69004e-09 1.48631e-09 -2.31074e-09 -3.2886e-09 7.73091 5.47488 0.417314 1.48631e-09 -2.31073e-09 -3.28859e-09 2.90554 0.965183 0.102902 1.48632e-09 -2.31073e-09 -3.28859e-09 10.2786 0.731801 0.0259123 1.4863e-09 -2.31072e-09 -3.28859e-09 2.22167 -0.733487 -0.20892 3.81158e-14 4.16598e-13 2.12898e-13 -24.6091 22.7562 -60.5279 28.0189 -30.7257 -68.4083 6.03373 -54.9755 11.568 5.03253e-10 1.21073e-09 1.29295e-09 8.07849e-10 2.10188e-09 2.24502e-09 5.03239e-10 1.21073e-09 1.29297e-09 -7.73091 5.47488 -0.417314 5.03254e-10 1.21072e-09 1.29295e-09 -2.90554 0.965183 -0.102902 5.03243e-10 1.21072e-09 1.29295e-09 -10.2786 0.731801 -0.0259123 5.03255e-10 1.21072e-09 1.29295e-09 -2.22167 -0.733487 0.20892 -2.03217e-16 0.0 -3.88251e-19 7.74438 -55.3225 -8.38342 -1.10193 60.4 1.49442 -5.66951 -17.6913 -11.9254 2.03217e-16 0.0 3.88251e-19 50.5468 -67.9387 48.5843 176.65 62.0073 -177.039 -1.05074 -3.74646 -4.74826
